<svg xmlns="http://www.w3.org/2000/svg" xmlns:xlink="http://www.w3.org/1999/xlink" version="1.1" data-diagram-type="ACTIVITY" style="width:533px;height:1167px;background:#FFFFFF;" width="533px" height="1167px" viewBox="0 0 533 1167" zoomAndPan="magnify" preserveAspectRatio="none" contentStyleType="text/css"><?plantuml 1.2026.8?><defs/><g font-family="sans-serif" lengthAdjust="spacing"><g class="title" data-source-line="8"><text x="92.341" y="31.94" fill="#000" font-size="22" textLength="347.145" font-weight="700" font-family="Helvetica">setu: bridge in, design forces out</text></g><ellipse cx="258.259" cy="63" rx="10" ry="10" fill="#FFF" style="stroke:#000;stroke-width:1;"/><rect x="70.699" y="93" width="375.12" height="44" fill="#FFF" style="stroke:#555;stroke-width:1;" rx="12.5" ry="12.5"/><text x="80.699" y="113.01" fill="#000" font-size="13" textLength="355.12" font-family="Helvetica">Bridge input + site (wind, seismic, temperature, custom loads)</text><text x="80.699" y="124.47" fill="#777" font-size="11" textLength="35.46" font-family="Helvetica">models</text><rect x="14.663" y="147" width="487.192" height="217" fill="#FFF" style="stroke:#999;stroke-width:1;"/><path d="M270.361,147 L270.361,153 L260.361,163 L14.663,163" style="stroke:#999;stroke-width:1;" fill="none"/><text x="17.663" y="158.01" fill="#000" font-size="13" textLength="245.699" font-family="Helvetica">1  Dead load  (IRC:22 stages, un-propped)</text><rect x="103.723" y="180" width="309.072" height="44" fill="#FFF" style="stroke:#555;stroke-width:1;" rx="12.5" ry="12.5"/><text x="113.723" y="200.01" fill="#000" font-size="13" textLength="289.072" font-family="Helvetica">Steel alone: girders and bracing, then the wet slab</text><text x="113.723" y="211.47" fill="#777" font-size="11" textLength="246.447" font-family="Helvetica">loads.steel_self_weight_load, loads.wet_slab_load</text><rect x="24.663" y="244" width="467.192" height="44" fill="#FFF" style="stroke:#555;stroke-width:1;" rx="12.5" ry="12.5"/><text x="34.663" y="264.01" fill="#000" font-size="13" textLength="447.192" font-family="Helvetica">Composite, long term: footpath (kN/m²), kerb / median / barrier / railing (kN/m)</text><text x="34.663" y="275.47" fill="#777" font-size="11" textLength="155.95" font-family="Helvetica">loads.superimposed_dead_load</text><rect x="188.28" y="308" width="139.958" height="44" fill="#FFF" style="stroke:#555;stroke-width:1;" rx="12.5" ry="12.5"/><text x="198.28" y="328.01" fill="#000" font-size="13" textLength="119.958" font-family="Helvetica">Surfacing, kept apart</text><text x="198.28" y="339.47" fill="#777" font-size="11" textLength="100.901" font-family="Helvetica">loads.surfacing_load</text><rect x="15.691" y="374" width="503.136" height="323.75" fill="#FFF" style="stroke:#999;stroke-width:1;"/><path d="M217.155,374 L217.155,380 L207.155,390 L15.691,390" style="stroke:#999;stroke-width:1;" fill="none"/><text x="18.691" y="385.01" fill="#000" font-size="13" textLength="191.464" font-family="Helvetica">2  Live load  (IRC:6, every girder)</text><rect x="164.813" y="407" width="186.893" height="44" fill="#FFF" style="stroke:#555;stroke-width:1;" rx="12.5" ry="12.5"/><text x="174.813" y="427.01" fill="#000" font-size="13" textLength="166.893" font-family="Helvetica">Composite model, short term</text><text x="174.813" y="438.47" fill="#777" font-size="11" textLength="33.021" font-family="Helvetica">builder</text><rect x="25.691" y="524" width="465.136" height="44" fill="#FFF" style="stroke:#555;stroke-width:1;" rx="12.5" ry="12.5"/><text x="35.691" y="544.01" fill="#000" font-size="13" textLength="445.136" font-family="Helvetica">Influence surfaces: moment near midspan, shear, bearing reaction, deflection</text><text x="35.691" y="555.47" fill="#777" font-size="11" textLength="129.019" font-family="Helvetica">analysis.influence_surface</text><rect x="80.992" y="597.75" width="354.534" height="44" fill="#FFF" style="stroke:#555;stroke-width:1;" rx="12.5" ry="12.5"/><text x="90.992" y="617.76" fill="#000" font-size="13" textLength="334.534" font-family="Helvetica">Worst vehicles, UDL, footway, braking; fatigue truck range</text><text x="90.992" y="629.22" fill="#777" font-size="11" textLength="303.891" font-family="Helvetica">analysis.critical_position, loads.braking_loads, analysis.fatigue</text><rect x="217.549" y="471" width="81.42" height="33" fill="#FFF" style="stroke:#555;stroke-width:1;" rx="12.5" ry="12.5"/><text x="227.549" y="491.01" fill="#000" font-size="13" textLength="61.42" font-family="Helvetica">next girder</text><polygon points="218.161,661.75,298.357,661.75,310.357,673.75,298.357,685.75,218.161,685.75,206.161,673.75,218.161,661.75" fill="#FFF" style="stroke:#555;stroke-width:1;stroke-linejoin:miter;stroke-miterlimit:10;"/><text x="218.161" y="677.26" fill="#000" font-size="13" textLength="80.196" font-family="Helvetica">more girders?</text><text x="310.357" y="670.76" fill="#000" font-size="13" textLength="20.23" font-family="Helvetica">yes</text><rect x="11" y="730.75" width="494.518" height="153" fill="#FFF" style="stroke:#999;stroke-width:1;"/><path d="M102.656,730.75 L102.656,736.75 L92.656,746.75 L11,746.75" style="stroke:#999;stroke-width:1;" fill="none"/><text x="14" y="741.76" fill="#000" font-size="13" textLength="81.656" font-family="Helvetica">3  Other loads</text><rect x="102.122" y="763.75" width="312.273" height="44" fill="#FFF" style="stroke:#555;stroke-width:1;" rx="12.5" ry="12.5"/><text x="112.122" y="783.76" fill="#000" font-size="13" textLength="252.865" font-family="Helvetica">Wind (209), seismic (SP:114), custom loads</text><text x="112.122" y="795.22" fill="#777" font-size="11" textLength="292.273" font-family="Helvetica">loads.wind_loads, loads.seismic_loads, loads.custom_loads</text><rect x="21" y="827.75" width="474.518" height="44" fill="#FFF" style="stroke:#555;stroke-width:1;" rx="12.5" ry="12.5"/><text x="31" y="847.76" fill="#000" font-size="13" textLength="454.518" font-family="Helvetica">Temperature (215): heating and cooling stresses per girder, bearing movement</text><text x="31" y="859.22" fill="#777" font-size="11" textLength="146.115" font-family="Helvetica">postprocess.thermal_stresses</text><rect x="88.686" y="893.75" width="339.146" height="217" fill="#FFF" style="stroke:#999;stroke-width:1;"/><path d="M194.796,893.75 L194.796,899.75 L184.796,909.75 L88.686,909.75" style="stroke:#999;stroke-width:1;" fill="none"/><text x="91.686" y="904.76" fill="#000" font-size="13" textLength="96.11" font-family="Helvetica">4  Design values</text><rect x="145.633" y="926.75" width="225.251" height="44" fill="#FFF" style="stroke:#555;stroke-width:1;" rx="12.5" ry="12.5"/><text x="155.633" y="946.76" fill="#000" font-size="13" textLength="205.251" font-family="Helvetica">Annex B: one leading load at a time</text><text x="155.633" y="958.22" fill="#777" font-size="11" textLength="85.594" font-family="Helvetica">irc6.combinations</text><rect x="98.686" y="990.75" width="319.146" height="44" fill="#FFF" style="stroke:#555;stroke-width:1;" rx="12.5" ry="12.5"/><text x="108.686" y="1010.76" fill="#000" font-size="13" textLength="299.146" font-family="Helvetica">Governing value for every girder; IRC:22 deflections</text><text x="108.686" y="1022.22" fill="#777" font-size="11" textLength="132.693" font-family="Helvetica">postprocess.design_values</text><rect x="134.804" y="1054.75" width="246.91" height="44" fill="#FFF" style="stroke:#555;stroke-width:1;" rx="12.5" ry="12.5"/><text x="144.804" y="1074.76" fill="#000" font-size="13" textLength="226.91" font-family="Helvetica">MIDAS loads and OsdagBridge dataset</text><text x="144.804" y="1086.22" fill="#777" font-size="11" textLength="136.968" font-family="Helvetica">midas_loads, result_dataset</text><ellipse cx="258.259" cy="1141.75" rx="11" ry="11" fill="none" style="stroke:#000;stroke-width:1;"/><ellipse cx="258.259" cy="1141.75" rx="6" ry="6" fill="#FFF" style="stroke:#000;stroke-width:1;"/><line x1="258.259" y1="73" x2="258.259" y2="93" style="stroke:#555;stroke-width:1;"/><polygon points="254.259,83,258.259,93,262.259,83,258.259,87" fill="#555" style="stroke:#555;stroke-width:1;stroke-linejoin:miter;stroke-miterlimit:10;"/><line x1="258.259" y1="224" x2="258.259" y2="244" style="stroke:#555;stroke-width:1;"/><polygon points="254.259,234,258.259,244,262.259,234,258.259,238" fill="#555" style="stroke:#555;stroke-width:1;stroke-linejoin:miter;stroke-miterlimit:10;"/><line x1="258.259" y1="288" x2="258.259" y2="308" style="stroke:#555;stroke-width:1;"/><polygon points="254.259,298,258.259,308,262.259,298,258.259,302" fill="#555" style="stroke:#555;stroke-width:1;stroke-linejoin:miter;stroke-miterlimit:10;"/><line x1="258.259" y1="137" x2="258.259" y2="180" style="stroke:#555;stroke-width:1;"/><polygon points="254.259,170,258.259,180,262.259,170,258.259,174" fill="#555" style="stroke:#555;stroke-width:1;stroke-linejoin:miter;stroke-miterlimit:10;"/><line x1="258.259" y1="568" x2="258.259" y2="597.75" style="stroke:#555;stroke-width:1;"/><polygon points="254.259,587.75,258.259,597.75,262.259,587.75,258.259,591.75" fill="#555" style="stroke:#555;stroke-width:1;stroke-linejoin:miter;stroke-miterlimit:10;"/><line x1="258.259" y1="504" x2="258.259" y2="524" style="stroke:#555;stroke-width:1;"/><polygon points="254.259,514,258.259,524,262.259,514,258.259,518" fill="#555" style="stroke:#555;stroke-width:1;stroke-linejoin:miter;stroke-miterlimit:10;"/><line x1="310.357" y1="673.75" x2="502.827" y2="673.75" style="stroke:#555;stroke-width:1;"/><polygon points="498.827,588,502.827,578,506.827,588,502.827,584" fill="#555" style="stroke:#555;stroke-width:1;stroke-linejoin:miter;stroke-miterlimit:10;"/><line x1="502.827" y1="487.5" x2="502.827" y2="673.75" style="stroke:#555;stroke-width:1;"/><line x1="502.827" y1="487.5" x2="298.969" y2="487.5" style="stroke:#555;stroke-width:1;"/><polygon points="308.969,483.5,298.969,487.5,308.969,491.5,304.969,487.5" fill="#555" style="stroke:#555;stroke-width:1;stroke-linejoin:miter;stroke-miterlimit:10;"/><line x1="258.259" y1="641.75" x2="258.259" y2="661.75" style="stroke:#555;stroke-width:1;"/><polygon points="254.259,651.75,258.259,661.75,262.259,651.75,258.259,655.75" fill="#555" style="stroke:#555;stroke-width:1;stroke-linejoin:miter;stroke-miterlimit:10;"/><line x1="258.259" y1="451" x2="258.259" y2="471" style="stroke:#555;stroke-width:1;"/><polygon points="254.259,461,258.259,471,262.259,461,258.259,465" fill="#555" style="stroke:#555;stroke-width:1;stroke-linejoin:miter;stroke-miterlimit:10;"/><line x1="258.259" y1="352" x2="258.259" y2="407" style="stroke:#555;stroke-width:1;"/><polygon points="254.259,397,258.259,407,262.259,397,258.259,401" fill="#555" style="stroke:#555;stroke-width:1;stroke-linejoin:miter;stroke-miterlimit:10;"/><line x1="258.259" y1="807.75" x2="258.259" y2="827.75" style="stroke:#555;stroke-width:1;"/><polygon points="254.259,817.75,258.259,827.75,262.259,817.75,258.259,821.75" fill="#555" style="stroke:#555;stroke-width:1;stroke-linejoin:miter;stroke-miterlimit:10;"/><line x1="258.259" y1="685.75" x2="258.259" y2="763.75" style="stroke:#555;stroke-width:1;"/><polygon points="254.259,753.75,258.259,763.75,262.259,753.75,258.259,757.75" fill="#555" style="stroke:#555;stroke-width:1;stroke-linejoin:miter;stroke-miterlimit:10;"/><text x="262.259" y="719.25" fill="#000" font-size="13" textLength="14.46" font-family="Helvetica">no</text><line x1="258.259" y1="970.75" x2="258.259" y2="990.75" style="stroke:#555;stroke-width:1;"/><polygon points="254.259,980.75,258.259,990.75,262.259,980.75,258.259,984.75" fill="#555" style="stroke:#555;stroke-width:1;stroke-linejoin:miter;stroke-miterlimit:10;"/><line x1="258.259" y1="1034.75" x2="258.259" y2="1054.75" style="stroke:#555;stroke-width:1;"/><polygon points="254.259,1044.75,258.259,1054.75,262.259,1044.75,258.259,1048.75" fill="#555" style="stroke:#555;stroke-width:1;stroke-linejoin:miter;stroke-miterlimit:10;"/><line x1="258.259" y1="871.75" x2="258.259" y2="926.75" style="stroke:#555;stroke-width:1;"/><polygon points="254.259,916.75,258.259,926.75,262.259,916.75,258.259,920.75" fill="#555" style="stroke:#555;stroke-width:1;stroke-linejoin:miter;stroke-miterlimit:10;"/><line x1="258.259" y1="1098.75" x2="258.259" y2="1130.75" style="stroke:#555;stroke-width:1;"/><polygon points="254.259,1120.75,258.259,1130.75,262.259,1120.75,258.259,1124.75" fill="#555" style="stroke:#555;stroke-width:1;stroke-linejoin:miter;stroke-miterlimit:10;"/><?plantuml-src ZLNRZjis47ttLqoJ5njHlFNcieXsuM8lIBD0cWHnYpmAOsai3qoH0adPTOh-L3wXNvOX9UskMxaRFGWoJPuvS-RCy2U_fegWLiXwv3QiQxHOGK4hR9H_QxJ_WFB_Er9RyfpZy9u5VoMOlNZmvsNkUSj-VsLiGVRQA6FXwQlu3Et2V5DQq-YYs_asFWzsVaBhsRFH1u1lulCGq5gpEumcnnI18z-aiBHSb0Ii4s7lkDImCZOd1wRnev7p4cIKNlMRwiR3Ct3i2SOxraKYAEmgpXFmLDLaqJUM4iWRvqq5oc3X9gCB9sAaizdy8WyyqgTdPsVpoXIatCL9N9fVd8Gzy_FHgExJWYSpW1l28i80Z6y_NwUdfo2SId89DFfvRKrTKp5v0d-D0DA59rA0ocXAeUIWYWFKXII9EUjIIAv9XnVio8DJk9HZW-mYywaBW9aZjSfsnENQPs4zQVEQ2aOMCEBYVn8HFjUcgaqGAvpGfKXagrJqDRv6luRnviD9zS-tIG8RiaiuWOeAHYqVIxIMoSgNHLR2lDqxUOHj8mNW49AAh13XZX9RD7RLARAXsWC6qHy3xuuCW_vzKBXJWFUyfOU5Uvq0RSdkkxhq9RkJ2A8Vn4zhOtrKwXYVPSDA40RoibGJUaWr_UcxE65PmjpgbMf8v-Bwc0UvL09Mf3reGWiL5wv67SBBpmIMyWwoMy8yf1IQOwKeVaV4GMQeKUqTkodtuR8kt01POVN5METXIslELN3q7pVlasYF7UwJO5fful8SLkYvR0YyRVADE4ANz0CSSijXEgaiwXjpQ2lPuSOwIj2x0rsOuxhkrYnZOrmPItrt_J81TZ3UamlUV3u7RVxjXHS07wNZR1kzA_iNcHqmFltvpUHkWi1uyKcIUJavd1x_xyemW_f4Ef-sQ8UBBM2xDjGFlz_FBc4rUpL9GNpWWmF2-CYDYKtel2NdP3RAvaw1UwjKPal1KCS8Incyp2kndfi6FIefJG_uI3kz37CmpkOjYgzw4I-r61skKf1v1qhwFT28BIV5Gl1SqJ4oRFFNqznKIzOOOWogygjaP7K0ZM73nN3Gm-VGJUJxtd0_adrxpsHjBaE1VxkzkLoqfOlwVtG5bjqTLA17kRcEnP56HjSNNyILspZhZWo8BAwelmC0?></g></svg>